<svg width="620" height="180" viewBox="0 0 620 180" fill="none" xmlns="http://www.w3.org/2000/svg">
  <defs>
    <clipPath id="odirico-ring-black">
      <path fill-rule="evenodd" clip-rule="evenodd" d="M90 12C47.0264 12 12 47.0264 12 90C12 132.974 47.0264 168 90 168C132.974 168 168 132.974 168 90C168 47.0264 132.974 12 90 12ZM90 51C111.539 51 129 68.4609 129 90C129 111.539 111.539 129 90 129C68.4609 129 51 111.539 51 90C51 68.4609 68.4609 51 90 51Z"/>
    </clipPath>
  </defs>
  <g clip-path="url(#odirico-ring-black)">
    <rect x="10" y="20" width="160" height="10" rx="5" fill="#121313"/>
    <rect x="10" y="39" width="160" height="10" rx="5" fill="#121313"/>
    <rect x="10" y="58" width="160" height="10" rx="5" fill="#121313"/>
    <rect x="10" y="77" width="160" height="10" rx="5" fill="#121313"/>
    <rect x="10" y="96" width="160" height="10" rx="5" fill="#121313"/>
    <rect x="10" y="115" width="160" height="10" rx="5" fill="#121313"/>
    <rect x="10" y="134" width="160" height="10" rx="5" fill="#121313"/>
    <rect x="10" y="153" width="160" height="10" rx="5" fill="#121313"/>
  </g>
  <text x="195" y="86" fill="#121313" font-family="'Space Grotesk', 'Aptos Display', sans-serif" font-size="61" font-weight="700" letter-spacing="2">ODIRICO</text>
  <text x="198" y="123" fill="#121313" font-family="'Instrument Sans', 'Aptos', sans-serif" font-size="27" font-weight="500" letter-spacing="0.5">Consulting + OS</text>
</svg>
