<svg width="1200" height="900" viewBox="0 0 1200 900" fill="none" xmlns="http://www.w3.org/2000/svg">
  <defs>
    <linearGradient id="infra-sky" x1="170" y1="80" x2="1030" y2="840" gradientUnits="userSpaceOnUse">
      <stop stop-color="#D9E0E3"/>
      <stop offset="0.55" stop-color="#9BA8AD"/>
      <stop offset="1" stop-color="#49565C"/>
    </linearGradient>
    <linearGradient id="infra-ground" x1="100" y1="480" x2="1080" y2="900" gradientUnits="userSpaceOnUse">
      <stop stop-color="#6D787D"/>
      <stop offset="1" stop-color="#23282B"/>
    </linearGradient>
    <filter id="infra-blur" x="664" y="40" width="418" height="418" filterUnits="userSpaceOnUse" color-interpolation-filters="sRGB">
      <feGaussianBlur stdDeviation="48"/>
    </filter>
  </defs>
  <rect width="1200" height="900" fill="url(#infra-sky)"/>
  <g filter="url(#infra-blur)">
    <circle cx="873" cy="249" r="113" fill="#FF8C75" fill-opacity="0.58"/>
  </g>
  <path d="M0 628L212 556L421 612L702 513L1018 556L1200 510V900H0V628Z" fill="url(#infra-ground)"/>
  <path d="M-8 610C149 584 251 522 360 468C469 414 603 392 770 425C923 455 1018 453 1205 389" stroke="#2A3135" stroke-width="26" stroke-linecap="round"/>
  <path d="M164 646L562 596L770 639L1160 589" stroke="#CDD5D8" stroke-width="8" stroke-linecap="round" stroke-opacity="0.8"/>
  <path d="M489 900L638 591" stroke="#F5F5F3" stroke-width="5" stroke-linecap="round" stroke-opacity="0.75"/>
  <path d="M563 900L706 606" stroke="#F5F5F3" stroke-width="5" stroke-linecap="round" stroke-opacity="0.55"/>
  <path d="M298 279V606" stroke="#2A3135" stroke-width="18" stroke-linecap="round"/>
  <path d="M466 228V583" stroke="#2A3135" stroke-width="18" stroke-linecap="round"/>
  <path d="M299 280L127 606" stroke="#CBD2D4" stroke-width="5" stroke-linecap="round"/>
  <path d="M299 280L207 606" stroke="#CBD2D4" stroke-width="5" stroke-linecap="round"/>
  <path d="M299 280L389 606" stroke="#CBD2D4" stroke-width="5" stroke-linecap="round"/>
  <path d="M299 280L468 606" stroke="#CBD2D4" stroke-width="5" stroke-linecap="round"/>
  <path d="M466 229L297 588" stroke="#CBD2D4" stroke-width="5" stroke-linecap="round"/>
  <path d="M466 229L391 589" stroke="#CBD2D4" stroke-width="5" stroke-linecap="round"/>
  <path d="M466 229L541 584" stroke="#CBD2D4" stroke-width="5" stroke-linecap="round"/>
  <path d="M466 229L635 572" stroke="#CBD2D4" stroke-width="5" stroke-linecap="round"/>
  <path d="M798 226L1030 226" stroke="#F5F5F3" stroke-width="6" stroke-linecap="round" stroke-opacity="0.7"/>
  <path d="M775 319H1124" stroke="#F5F5F3" stroke-width="6" stroke-linecap="round" stroke-opacity="0.52"/>
  <path d="M760 416H1176" stroke="#F5F5F3" stroke-width="6" stroke-linecap="round" stroke-opacity="0.38"/>
  <rect x="750" y="211" width="38" height="220" rx="14" fill="#283033"/>
  <rect x="1100" y="182" width="28" height="288" rx="14" fill="#283033"/>
  <rect x="468" y="515" width="393" height="14" rx="7" fill="#FF6044" fill-opacity="0.78"/>
</svg>
