<svg width="200" height="200" viewBox="0 0 200 200" fill="none" xmlns="http://www.w3.org/2000/svg">
  <defs>
    <clipPath id="odirico-ring">
      <path fill-rule="evenodd" clip-rule="evenodd" d="M100 12C51.4 12 12 51.4 12 100C12 148.6 51.4 188 100 188C148.6 188 188 148.6 188 100C188 51.4 148.6 12 100 12ZM100 56C124.301 56 144 75.6995 144 100C144 124.301 124.301 144 100 144C75.6995 144 56 124.301 56 100C56 75.6995 75.6995 56 100 56Z"/>
    </clipPath>
  </defs>
  <g clip-path="url(#odirico-ring)">
    <rect x="10" y="20" width="180" height="12" rx="6" fill="#121313"/>
    <rect x="10" y="42" width="180" height="12" rx="6" fill="#121313"/>
    <rect x="10" y="64" width="180" height="12" rx="6" fill="#121313"/>
    <rect x="10" y="86" width="180" height="12" rx="6" fill="#121313"/>
    <rect x="10" y="108" width="180" height="12" rx="6" fill="#121313"/>
    <rect x="10" y="130" width="180" height="12" rx="6" fill="#121313"/>
    <rect x="10" y="152" width="180" height="12" rx="6" fill="#121313"/>
    <rect x="10" y="174" width="180" height="12" rx="6" fill="#121313"/>
    <rect x="108" y="42" width="82" height="12" rx="6" fill="#FF6044"/>
  </g>
</svg>
