<svg width="1200" height="900" viewBox="0 0 1200 900" fill="none" xmlns="http://www.w3.org/2000/svg">
  <defs>
    <linearGradient id="energy-sky" x1="160" y1="70" x2="990" y2="790" gradientUnits="userSpaceOnUse">
      <stop stop-color="#E4E6E5"/>
      <stop offset="0.4" stop-color="#AAB4B8"/>
      <stop offset="1" stop-color="#2E3A3F"/>
    </linearGradient>
    <linearGradient id="energy-ground" x1="88" y1="530" x2="1102" y2="900" gradientUnits="userSpaceOnUse">
      <stop stop-color="#546168"/>
      <stop offset="1" stop-color="#1A1F22"/>
    </linearGradient>
    <filter id="energy-glow" x="718" y="70" width="362" height="362" filterUnits="userSpaceOnUse" color-interpolation-filters="sRGB">
      <feGaussianBlur stdDeviation="40"/>
    </filter>
  </defs>
  <rect width="1200" height="900" fill="url(#energy-sky)"/>
  <g filter="url(#energy-glow)">
    <circle cx="899" cy="251" r="101" fill="#FF7D62" fill-opacity="0.6"/>
  </g>
  <path d="M0 637L172 573L340 604L493 563L624 590L799 551L985 590L1200 528V900H0V637Z" fill="url(#energy-ground)"/>
  <path d="M58 667H1156" stroke="#D8DDDE" stroke-width="6" stroke-linecap="round" stroke-opacity="0.42"/>
  <path d="M186 564L133 675" stroke="#232B2F" stroke-width="12" stroke-linecap="round"/>
  <path d="M186 564L239 675" stroke="#232B2F" stroke-width="12" stroke-linecap="round"/>
  <path d="M186 564V682" stroke="#232B2F" stroke-width="12" stroke-linecap="round"/>
  <path d="M138 618H234" stroke="#D8DDDE" stroke-width="5" stroke-linecap="round"/>
  <path d="M151 646H221" stroke="#D8DDDE" stroke-width="5" stroke-linecap="round"/>
  <path d="M380 482L297 680" stroke="#232B2F" stroke-width="13" stroke-linecap="round"/>
  <path d="M380 482L463 680" stroke="#232B2F" stroke-width="13" stroke-linecap="round"/>
  <path d="M380 482V691" stroke="#232B2F" stroke-width="13" stroke-linecap="round"/>
  <path d="M309 552H451" stroke="#D8DDDE" stroke-width="5" stroke-linecap="round"/>
  <path d="M326 596H434" stroke="#D8DDDE" stroke-width="5" stroke-linecap="round"/>
  <path d="M606 422L497 686" stroke="#232B2F" stroke-width="14" stroke-linecap="round"/>
  <path d="M606 422L715 686" stroke="#232B2F" stroke-width="14" stroke-linecap="round"/>
  <path d="M606 422V700" stroke="#232B2F" stroke-width="14" stroke-linecap="round"/>
  <path d="M514 515H698" stroke="#D8DDDE" stroke-width="6" stroke-linecap="round"/>
  <path d="M538 572H674" stroke="#D8DDDE" stroke-width="6" stroke-linecap="round"/>
  <path d="M864 476L800 673" stroke="#232B2F" stroke-width="12" stroke-linecap="round"/>
  <path d="M864 476L928 673" stroke="#232B2F" stroke-width="12" stroke-linecap="round"/>
  <path d="M864 476V683" stroke="#232B2F" stroke-width="12" stroke-linecap="round"/>
  <path d="M811 545H917" stroke="#D8DDDE" stroke-width="5" stroke-linecap="round"/>
  <path d="M825 588H903" stroke="#D8DDDE" stroke-width="5" stroke-linecap="round"/>
  <path d="M1048 554L1001 675" stroke="#232B2F" stroke-width="11" stroke-linecap="round"/>
  <path d="M1048 554L1095 675" stroke="#232B2F" stroke-width="11" stroke-linecap="round"/>
  <path d="M1048 554V681" stroke="#232B2F" stroke-width="11" stroke-linecap="round"/>
  <path d="M1009 608H1087" stroke="#D8DDDE" stroke-width="5" stroke-linecap="round"/>
  <path d="M180 552C320 472 514 451 606 422C739 380 936 408 1048 554" stroke="#EDF1F2" stroke-width="4" stroke-linecap="round" stroke-opacity="0.7"/>
  <path d="M185 564C330 548 533 520 865 476C960 463 1020 484 1048 554" stroke="#EDF1F2" stroke-width="4" stroke-linecap="round" stroke-opacity="0.5"/>
  <rect x="454" y="651" width="214" height="16" rx="8" fill="#FF6044" fill-opacity="0.82"/>
</svg>
